<!--?xml version="1.0" encoding="utf-8"?-->
<!-- Svg Vector Icons : http://www.onlinewebfonts.com/icon -->
<!-- <metadata> Svg Vector Icons : http://www.onlinewebfonts.com/icon </metadata> -->

<svg xmlns="http://www.w3.org/2000/svg" xmlns:xlink="http://www.w3.org/1999/xlink" x="0px" y="0px" viewBox="0 0 256 256" >
<g><g><g><path fill="#666969"    data-title="Layer 0" xs="0" d="M28.1,11.4l-1.4,1.4l0.3,9c0.5,15.5,3.7,25.7,11.8,38c3.1,4.7,7.1,8.9,34.9,36.8l31.4,31.4l-17.8,17.8l-17.8,17.8l-3.5-0.9c-3-0.8-6.1-0.9-20-0.9l-16.5-0.1l-1.3,1.3c-0.8,0.8-1.3,1.8-1.3,2.9c0,1.5,1.1,2.8,9.6,11.4l9.6,9.6l-16,16c-8.7,8.7-16.4,16.7-17,17.6c-2.5,4.2-3.2,7.5-3.2,16.7v8.7h8.3c14.9-0.1,14.1,0.4,34.5-19.9L69,209.9l9.6,9.6c8.5,8.5,9.9,9.6,11.4,9.6c1.1,0,2.2-0.5,3-1.3l1.3-1.4L94.2,209c-0.2-14.1-0.4-18-1.1-19.9l-0.8-2.5l17.8-17.8l17.9-17.9l17.8,17.8l17.7,17.7l-0.8,4.1c-0.7,3.2-0.9,7-0.9,20.1v16.1l1.3,1.3c0.8,0.8,1.8,1.3,3,1.3c1.5,0,2.8-1.1,11.4-9.6l9.6-9.6l16.2,16.2c20.3,20.3,19.6,19.9,34.5,19.9h8.3v-8.3c-0.1-14.9,0.4-14.1-19.9-34.5L209.9,187l9.6-9.6c8.5-8.5,9.6-9.9,9.6-11.4c0-1.1-0.5-2.2-1.3-2.9l-1.3-1.3h-16.1c-13.1,0-16.9,0.2-20.1,0.9l-4.1,0.8l-17.7-17.7L150.9,128l31.4-31.4c27.8-27.9,31.8-32.1,34.9-36.8c8.1-12.3,11.3-22.5,11.8-38l0.3-9l-1.4-1.4c-0.9-0.9-1.9-1.4-3.1-1.4c-1.6,0-5.5,3.8-49.3,47.5L128,105.1L80.4,57.5C36.7,13.8,32.8,10,31.2,10C30,10,29,10.5,28.1,11.4z M116.5,116.5l-5.4,5.4L79.6,90.3c-28-28-31.9-32.2-34.8-36.6c-5.1-7.8-8.3-17-9.2-25.8l-0.4-3.4l43.4,43.3l43.4,43.4L116.5,116.5z M219.9,30.5c-1.4,9.9-5.3,18.9-11.3,26.9c-1.4,1.8-29,29.8-61.4,62.1l-58.8,58.7l-1.9-2.4c-2.4-3-3.5-4-6.4-6.4l-2.4-1.9l71.4-71.4c39.2-39.2,71.4-71.3,71.5-71.2C220.7,25.1,220.4,27.6,219.9,30.5z M161.7,151l16.6,16.6l-2.1,1.7c-2.7,2.1-4.8,4.3-7,7l-1.7,2.1l-16.8-16.7l-16.8-16.8l5.3-5.3c2.9-2.9,5.4-5.3,5.5-5.3C145,134.3,152.6,141.8,161.7,151z M67.5,171.6c8.3,3.1,13.9,8.5,16.9,16.9c0.9,2.5,1.2,4.6,1.3,13c0.2,5.5,0.2,10.6,0.1,11.5c-0.2,1.3-2-0.4-22.3-20.8l-22.1-22.1l11.6,0.2C63.1,170.5,64.9,170.6,67.5,171.6z M192.5,192.3l-22.1,22.1l-0.2-9.5c-0.1-5.3,0.1-10.8,0.4-12.3c2.1-11.3,10.3-19.6,21.4-21.9c1.2-0.2,6.7-0.4,12.4-0.5l10.3-0.1L192.5,192.3z M57.6,198.5l5.2,5.3l-12.6,13.1c-20.3,21-20,20.7-27.4,20.7h-4.4v-4.4c0-7.1,0.2-7.4,18-24.7c8.5-8.3,15.6-15.2,15.8-15.2C52.3,193.3,54.8,195.7,57.6,198.5z M219.6,208.4c17.6,17.3,18,17.7,18,24.8v4.4h-4.3c-7.6,0-5.6,1.6-33.9-27.2l-6.3-6.5l5.3-5.3c2.9-2.9,5.4-5.2,5.6-5.2C204.2,193.5,211.2,200.3,219.6,208.4z"/></g></g></g>
</svg>